/* XPM */
static char *a_1[] = {
/* columns rows colors chars-per-pixel */
"24 32 202 2 ",
"   c #0D0E07",
".  c #0A0B0B",
"X  c #0F0D10",
"o  c #200400",
"O  c #271709",
"+  c #341B0F",
"@  c #2A2717",
"#  c #332513",
"$  c #2B3A1D",
"%  c #303C1B",
"&  c #1E1D3F",
"*  c #381833",
"=  c #2A3827",
"-  c #441B0D",
";  c #5B1307",
":  c #600D00",
">  c #651305",
",  c #781807",
"<  c #45210E",
"1  c #432613",
"2  c #5A2F10",
"3  c #483718",
"4  c #583617",
"5  c #6C280C",
"6  c #653617",
"7  c #7C3012",
"8  c #731B3D",
"9  c #463828",
"0  c #533926",
"q  c #5F2631",
"w  c #7F3D2D",
"e  c #6B2F30",
"r  c #1B4819",
"t  c #22481D",
"y  c #1E6B1E",
"u  c #294729",
"i  c #344927",
"p  c #205720",
"a  c #395831",
"s  c #236824",
"d  c #366D2C",
"f  c #297929",
"g  c #397634",
"h  c #6A451E",
"j  c #524C2B",
"k  c #44483B",
"l  c #405535",
"z  c #664523",
"x  c #734626",
"c  c #6D502F",
"v  c #785327",
"b  c #67573A",
"n  c #765B37",
"m  c #406339",
"M  c #73613D",
"N  c #101752",
"B  c #1B215D",
"V  c #282A54",
"C  c #2F3556",
"Z  c #1D2A7D",
"A  c #333170",
"S  c #4B4942",
"D  c #595549",
"F  c #595958",
"G  c #615F5E",
"H  c #55794E",
"J  c #576956",
"K  c #597359",
"L  c #7A6445",
"P  c #54596F",
"I  c #686863",
"U  c #746F67",
"Y  c #697C6A",
"T  c #78736C",
"R  c #737374",
"E  c #7A7A7B",
"W  c #97230A",
"Q  c #823310",
"!  c #933418",
"~  c #A9290B",
"^  c #BB370E",
"/  c #AE2E12",
"(  c #A31F2F",
")  c #AD2F2B",
"_  c #C6290C",
"`  c #CA2C0D",
"'  c #CF2E10",
"]  c #E7340E",
"[  c #E9320C",
"{  c #B5430D",
"}  c #8E4E2C",
"|  c #835524",
" . c #8D5B26",
".. c #93522A",
"X. c #925F29",
"o. c #9B652A",
"O. c #A36B2E",
"+. c #A66D30",
"@. c #B86437",
"#. c #D8450D",
"$. c #EA560E",
"%. c #F1510F",
"&. c #FD590E",
"*. c #F84710",
"=. c #FB5310",
"-. c #FD5A10",
";. c #ED5E2F",
":. c #EC4A34",
">. c #F6722D",
",. c #8D2651",
"<. c #8D724F",
"1. c #96754B",
"2. c #AE7546",
"3. c #A47D50",
"4. c #817D7F",
"5. c #E96F53",
"6. c #D27365",
"7. c #EC776E",
"8. c #278328",
"9. c #2A852B",
"0. c #2A8B2B",
"q. c #32832D",
"w. c #2C932D",
"e. c #2E982F",
"r. c #348B35",
"t. c #369438",
"y. c #2FA62F",
"u. c #2FA230",
"i. c #2FAA31",
"p. c #31A532",
"a. c #32AD32",
"s. c #3DAC3E",
"d. c #32B032",
"f. c #67923A",
"g. c #458845",
"h. c #479548",
"j. c #5B8D5B",
"k. c #43A745",
"l. c #4AB24A",
"z. c #58AF58",
"x. c #6F976F",
"c. c #7D827D",
"v. c #DCC03E",
"b. c #99824F",
"n. c #A98954",
"m. c #AB9150",
"M. c #B2925B",
"N. c #BD925A",
"B. c #8D8579",
"V. c #A7996A",
"C. c #C29E62",
"Z. c #C9A667",
"A. c #D0AC6B",
"S. c #D5B16E",
"D. c #DAB46F",
"F. c #DDB671",
"G. c #F8A37B",
"H. c #E0B771",
"J. c #E4BC75",
"K. c #E9C177",
"L. c #EBC379",
"P. c #F2C87C",
"I. c #FACD7F",
"U. c #1C2C99",
"Y. c #342E99",
"T. c #24359D",
"R. c #2537A7",
"E. c #2739A1",
"W. c #2739AA",
"Q. c #2737B5",
"!. c #3437B7",
"~. c #5232A5",
"^. c #3743AD",
"/. c #4B518E",
"(. c #6E6F8D",
"). c #5851AF",
"_. c #2D36CE",
"`. c #3539C4",
"'. c #3542D5",
"]. c #807E80",
"[. c #898989",
"{. c #908C8F",
"}. c #9C9596",
"|. c #B29087",
" X c #A09DB4",
".X c #AAA7AA",
"XX c #AFADB0",
"oX c #B9B5B9",
"OX c #EB8982",
"+X c #EEB3AC",
"@X c #F6CD80",
"#X c #FACE81",
"$X c #FED384",
"%X c #FFD887",
"&X c #F5C9B4",
"*X c #C4C2C4",
"=X c #D2CED2",
"-X c #D9D5D9",
";X c #F3D2CC",
":X c #E2DEE1",
">X c #E7E3E6",
",X c #EAE6EA",
/* pixels */
"a.a.a.a.a.a.a.a.d.t.= 3 z 3 g p.d.d.i.d.a.a.a.a.",
"a.a.a.a.a.a.a.s.g 6 { $.-.N.} a p.d.d.i.a.a.a.a.",
"a.a.a.a.a.d.s.m Q %.-.>.&X;X+X} h.d.i.a.a.a.a.a.",
"a.a.a.a.a.d.g 7 %.-.-.G.&X:.5.|.J k.i.a.a.a.a.a.",
"a.a.a.a.d.h.4 #.-.-.&.G.+XOX7.6.w e a q.y.d.a.a.",
"a.a.a.a.i.i ^ =.=.$.#.;.5.;.:.] ~ , ; O y a.a.a.",
"a.a.a.u.f 6 *.*.' / ' [ [ ~ ! -   . X   y a.a.a.",
"a.a.8.$ 2 ^ *.^ W ` ' / } 3.Z.9 = g.h.w.a.a.a.a.",
"d.e.@ W ] *.' 6 +.2.N.C.M @XS.@ D H t.a.a.a.a.a.",
"a.9.+ ] [ ] 7 4 D.%X%XF.9 J.Z.n.D.Z.L r.d.a.a.a.",
"a.t.O ! @.@.6 2 z K.%XI.M.P.L.$XI.I.C.i p.a.a.a.",
"a.k.u M.P.J.m.2 c L.M.n.I.%X$XI.I.I.D.l p.a.a.a.",
"a.s.l D.I.H.K.A.K.%Xn # c 1.A.I.I.I.b.8.a.a.a.a.",
"i.u.r L L.H.L.$X%X$XC.1 < < 4 n 3.M m a.a.a.a.a.",
"a.a.w.t j M n m.#X%X%Xn + < < - # 8.d.d.a.a.a.a.",
"a.a.a.i.0.f r $ M M.F.M.j + # % f d.d.d.a.a.a.a.",
"a.a.a.a.d.s.p O o * A q , ; m p.y.a.a.a.a.a.a.a.",
"a.a.a.a.l.l > ` ; 8 _.~.( _ e f a.a.a.a.a.a.a.a.",
"a.a.i.z.x.S ) ~ : ( `.'.).~.!.P f.a.a.a.a.a.a.a.",
"a.i.l.I .X-X=X}.5 ,.`. X@X)._.).m.d a.a.a.a.a.a.",
"a.a.r.F =X>X,X*XC Y.!.V.v.(.Q.^.<.t 8.a.a.a.a.a.",
"a.i.= [.oXoX-X>X].Z Q./.R ^.Q.W.P k y a.a.a.a.a.",
"a.i.a oXXX{.=X=XoXV R.Q.W.W.W.T.P = 9.a.a.a.a.a.",
"a.i.u oX,X:X:X].G Z E.E.E.W.W.A G = w.a.a.a.a.a.",
"a.a.g k .X-X:XXXC Z T.E.R.U.N   = 8.a.a.a.a.a.a.",
"a.a.a.w.s J F j 4 0 V B & 0 h h k k.a.a.a.a.a.a.",
"a.a.a.a.a.K 6 ..X.O. .| 1 v O.O.3 9.a.a.a.a.a.a.",
"a.a.a.d.r.i | X.X.X.O.+.x 4 o. .% w.i.a.a.a.a.a.",
"a.i.z.x.Y D |  . .X.o.X.6 b 1.b D j.j.p.a.a.a.a.",
"a.i.x.[.].G L <.1.n.3.<.9 I U I E c.(.j.a.a.a.a.",
"a.i.g.E E R G T T B.B.U R E E 4.(.B.c.r.a.a.a.a.",
"y.y.p.r.g.K Y E R R R R E E [.E Y h.t.u.u.i.p.u."
};
