/* XPM */
static char *a_2[] = {
/* columns rows colors chars-per-pixel */
"24 32 205 2 ",
"   c #10161E",
".  c #271509",
"X  c #371A0A",
"o  c #3D1C0C",
"O  c #2B1614",
"+  c #1D2D13",
"@  c #173916",
"#  c #3E230E",
"$  c #3C2815",
"%  c #33391D",
"&  c #0A0D29",
"*  c #2D1122",
"=  c #3A3125",
"-  c #3D3E3D",
";  c #490E0B",
":  c #781607",
">  c #681D11",
",  c #4E2607",
"<  c #462C16",
"1  c #47351B",
"2  c #5D3D1B",
"3  c #792812",
"4  c #433526",
"5  c #563B26",
"6  c #683427",
"7  c #1D5C1D",
"8  c #294C1E",
"9  c #31511F",
"0  c #18423C",
"q  c #3A4326",
"w  c #29582A",
"e  c #345536",
"r  c #385737",
"t  c #1C6E21",
"y  c #237623",
"u  c #267C27",
"i  c #2D7129",
"p  c #2C7C2A",
"a  c #4C4D18",
"s  c #7F4B1E",
"d  c #4E641B",
"f  c #5A4529",
"g  c #445827",
"h  c #575334",
"j  c #634425",
"k  c #664C2C",
"l  c #774828",
"z  c #7D5426",
"x  c #6A4F33",
"c  c #675434",
"v  c #735B36",
"b  c #496D36",
"n  c #79643D",
"m  c #67713A",
"M  c #282852",
"N  c #182274",
"B  c #252660",
"V  c #462770",
"C  c #662A78",
"Z  c #494B49",
"A  c #544D49",
"S  c #455645",
"D  c #5A5653",
"F  c #5B5855",
"G  c #635E54",
"H  c #486D45",
"J  c #4A784B",
"K  c #5E7C5E",
"L  c #766B45",
"P  c #77654C",
"I  c #505671",
"U  c #6B6A66",
"Y  c #687568",
"T  c #74746E",
"R  c #6F6C70",
"E  c #737272",
"W  c #797776",
"Q  c #7A7B7A",
"!  c #8D1D07",
"~  c #961D07",
"^  c #9C270C",
"/  c #8D3010",
"(  c #AC2A0D",
")  c #A7380A",
"_  c #B63B0C",
"`  c #AF2B11",
"'  c #D12B0C",
"]  c #EE2B0A",
"[  c #805223",
"{  c #885A29",
"}  c #935F28",
"|  c #A44E2A",
" . c #95622C",
".. c #9B652A",
"X. c #9E692C",
"o. c #876339",
"O. c #986835",
"+. c #A26B2D",
"@. c #C5460D",
"#. c #D84B0D",
"$. c #D75215",
"%. c #E7510E",
"&. c #F2570F",
"*. c #FC5A0F",
"=. c #E75816",
"-. c #FE5B11",
";. c #FC6018",
":. c #F56522",
">. c #962958",
",. c #984A44",
"<. c #8C6F42",
"1. c #816B48",
"2. c #8B7247",
"3. c #977949",
"4. c #957A4B",
"5. c #AF6D4E",
"6. c #897C69",
"7. c #A7736D",
"8. c #E7534E",
"9. c #29862A",
"0. c #2B942C",
"q. c #2E8830",
"w. c #318C33",
"e. c #398E3B",
"r. c #2F9E31",
"t. c #369838",
"y. c #2FA42F",
"u. c #30A82E",
"i. c #2FA730",
"p. c #2FAB31",
"a. c #32A532",
"s. c #32AD32",
"d. c #39A73A",
"f. c #3EAC3F",
"g. c #37B037",
"h. c #39B039",
"j. c #4B8D4C",
"k. c #469546",
"l. c #4F8350",
"z. c #529752",
"x. c #5AA34A",
"c. c #59A65A",
"v. c #6A9A6A",
"b. c #7B857C",
"n. c #9B8E46",
"m. c #9C814F",
"M. c #A78954",
"N. c #A98C57",
"B. c #B68D56",
"V. c #AA9357",
"C. c #B3935A",
"Z. c #B9985E",
"A. c #8E8371",
"S. c #978A78",
"D. c #BB976D",
"F. c #A8947B",
"G. c #BB9B72",
"H. c #CB9A5D",
"J. c #CA976E",
"K. c #F38E60",
"L. c #F6986E",
"P. c #C9A566",
"I. c #D8B16E",
"U. c #E1B972",
"Y. c #F0D450",
"T. c #EAC077",
"R. c #F1C67A",
"E. c #F7CA7D",
"W. c #FACE7F",
"Q. c #1D2B88",
"!. c #1B2595",
"~. c #1B2B92",
"^. c #2D3284",
"/. c #26379A",
"(. c #2637A5",
"). c #273AA5",
"_. c #2639AA",
"`. c #2939AD",
"'. c #242CB3",
"]. c #2736B7",
"[. c #2A38B5",
"{. c #49318F",
"}. c #3944B8",
"|. c #646489",
" X c #5256B0",
".X c #2736C9",
"XX c #626ACE",
"oX c #818181",
"OX c #898889",
"+X c #879787",
"@X c #9A989A",
"#X c #ABA18B",
"$X c #A09DA0",
"%X c #AEAAAC",
"&X c #BDBABD",
"*X c #EC9A96",
"=X c #F5AD90",
"-X c #F4B5A5",
";X c #FCD080",
":X c #C0BBC0",
">X c #C6C2C6",
",X c #CAC6CA",
"<X c #D4D0D4",
"1X c #E7E3E7",
"2X c #EAE6EA",
/* pixels */
"s.s.s.s.s.s.s.s.s.s.a.q.9.t 9.w.f.s.s.s.s.s.s.s.",
"s.s.s.s.s.s.s.s.s.t.q < , , , $ r t.s.s.s.s.s.s.",
"s.s.s.s.s.s.s.h.k.l @.:.L.*XK.=.) 1 p g.s.s.s.s.",
"s.s.s.s.s.s.g.q.l %.-.=X*XL.*XL.*.#.5 w.s.s.s.s.",
"s.s.s.s.s.s.t.a %.*.-.-X8.8.8.=X;.*.@.9 g.u.s.s.",
"s.s.s.s.s.s.p ) -.&.$.7.,.7.7.J.=.*.-./ q.g.s.s.",
"s.s.s.s.s.s.b $.&._ ( ` ` ( ( ^ ) _ &.@.w s.s.s.",
"s.s.s.s.s.p.a %._ ' ` 5.H.J.B.<.3 ! ) #.d s.s.s.",
"s.s.s.s.s.p.d ) ^ | f V.U.P.I.Z.k l 3 ) d p.s.s.",
"s.s.s.s.s.t.q X o.T.f n P.P.Z.f c R.3.. % y.s.s.",
"s.s.s.d.w.g 4., 2.W.2.V.E.;X;XC.m.E.O.% 4.e u.u.",
"s.p.i S Z v P.< v 4.L I.;XE.E.U.m.m.k f R.n 0.g.",
"s.d.r %X,XP R.1.3., X 4.;X;X;XV.. $ 3.Z.E.m y.u.",
"s.0.Z ,X<XD N.C.M.k o < 1.4.o.< # f N.P.m.u u.g.",
"a.w - OXOXOXF G P M.$ X ; o o < < v % 9 9.u.s.s.",
"q.Z :X1X,X@X@XE Z h 2.v 4 f f <.L = w g.s.s.s.s.",
"u OX2X1X2X:X,X$XF Z O 4 x 1.P [ ^ 6 k.u.s.s.s.s.",
"9.%X2X1X2X,X>X:X> ~ ! ! * !.'.C >.C I x.g.g.s.s.",
"y OX2X1X2X&X>X%X` ] ] ~ * '.XX$X X.X Xn.J d.s.s.",
"0.r :X1X<XR R = : : ; ; V ].#XY.OX[.}.n.= H d.s.",
"s.9.r Y S @ @ @   N ^.{.[.[.|.B.|.[.].|.U @ p.s.",
"s.s.i.q.r.p.i.p.0 '.[.[.[.`.`.`.`.`.`.I A 7 s.s.",
"s.s.s.s.s.s.s.s.e ].`._.).).).).(._.~.I - y s.s.",
"s.s.s.s.s.p.s.s.c.^.~.Q./.)./.)._.!.& - e i.s.s.",
"s.s.s.s.s.s.s.s.b j j 5 M ~.~.N B 5 j j q 9.s.s.",
"s.s.s.s.s.s.s.u $ ..+...k Z 4 j z ....+.[ 8 s.s.",
"u.s.s.s.s.s.i.8 z X.X.X.{ A [  .}  ...+.{ + y.s.",
"s.s.s.u.s.s.f.g ..X.X.X.{ = x o. .O.O. .2 e s.s.",
"p.s.s.s.s.c.A.D ..+.X.+.[ G G 6.6.F.F.S.F b.j.u.",
"s.s.s.p.f.v.oXF A.G.D.D.6.W |.W Q W T T Q b.v.u.",
"s.s.s.s.s.c.+XK Y W A.W T Q oXoXoXb.Q T K z.f.s.",
"y.y.y.d.p.a.a.f.e.w.J l.J l.J J z.j.e.w.0.y.y.y."
};
