/* XPM */
static char *exit[] = {
/* columns rows colors chars-per-pixel */
"32 41 101 2 ",
"   c #005E04",
".  c #006005",
"X  c #006406",
"o  c #006506",
"O  c #006606",
"+  c #006706",
"@  c #006907",
"#  c #006A07",
"$  c #006B07",
"%  c #006D06",
"&  c #006E08",
"*  c #006F08",
"=  c #006F09",
"-  c #007008",
";  c #007108",
":  c #007009",
">  c #007308",
",  c #007408",
"<  c #007508",
"1  c #007608",
"2  c #007708",
"3  c #007609",
"4  c #007709",
"5  c #00760B",
"6  c #007809",
"7  c #007B09",
"8  c #00790A",
"9  c #007C09",
"0  c #007D09",
"q  c #007E09",
"w  c #007E0A",
"e  c #007F0A",
"r  c #007F0B",
"t  c #007D0C",
"y  c #007E0D",
"u  c #00800A",
"i  c #00810A",
"p  c #00800B",
"a  c #00810B",
"s  c #00820B",
"d  c #00830B",
"f  c #00840A",
"g  c #00840B",
"h  c #00850B",
"j  c #00860B",
"k  c #00820E",
"l  c #00870C",
"z  c #00840E",
"x  c #00880C",
"c  c #008D0C",
"v  c #008F0D",
"b  c #008E0E",
"n  c #00900D",
"m  c #00910D",
"M  c #00900E",
"N  c #00900F",
"B  c #00940D",
"V  c #00980E",
"C  c #00990F",
"Z  c #009B0F",
"A  c #009610",
"S  c #009911",
"D  c #009B11",
"F  c #009C10",
"G  c #009E10",
"H  c #009F10",
"J  c #00A110",
"K  c #00A311",
"L  c #00A312",
"P  c #00A610",
"I  c #00A512",
"U  c #00A612",
"Y  c #00A712",
"T  c #00A812",
"R  c #00A912",
"E  c #00AB13",
"W  c #00AC13",
"Q  c #00AD13",
"!  c #00AE13",
"~  c #00AF13",
"^  c #00B013",
"/  c #00B113",
"(  c #00B313",
")  c #00B413",
"_  c #00B513",
"`  c #00B314",
"'  c #00B414",
"]  c #00B514",
"[  c #00BA14",
"{  c #00C114",
"}  c #00C015",
"|  c #00C214",
" . c #00C416",
".. c #00C516",
"X. c #00C616",
"o. c #00C816",
"O. c #00C916",
"+. c #00CF17",
"@. c #00D017",
"#. c #00D818",
"$. c None",
/* pixels */
"  O # # * * ; ; 5 > > > 5 2 > 2 2 6 6 s s j s s 9 s j q q q q # ",
"  5 k k A N U U U T T W W W / / ) ) ) @.#.#.#.#.{ @.#.O. . . .q ",
"  5 k k A N L U U T T T W W / / ` ` ] @.#.#.#.#.{ @.#.O. .O.O.q ",
"  5 k k A N L L T T W W W / / / ` ] ] @.#.#.#.#.[ @.#.O. . . .q ",
"  5 k k A N L U U T T W W W W / ` ] ] +.#.#.#.#.{ @.#. . .O.O.q ",
"  5 k k A N L L U T T W W W / / ` ` ] +.#.#.#.#.{ @.#.O. . .O.6 ",
"  5 k k A N L L T T T W W / / / ` ] ] +.#.#.#.#.{ +.#.O. .O.O.q ",
"  5 k k A N L U T T T W W W / / ` ` ] +.#.#.#.#.{ @.#.O. . . .q ",
"  5 k k A N L L U T T W W W / / ` ] ) @.#.#.#.#.{ +.#.O. . .O.q ",
"  5 k k A b L L U U T T W W / / ` ) ) @.#.#.#.#.{ @.#.O. . .O.q ",
"  5 k k A A L U U T W W W W W / ` ] ) @.#.#.#.#.[ @.#.O. . . .q ",
"  @ * * 6 5 q k s s s k j j j j l j x m V V V Z b B Z N m m N % ",
"$.$.$.$.O t t t b b Z Z F F L J L / { { { { / ) { [ / Z $.$.$.$.",
"$.$.$.$.O k k z S F T T W W W / /  .#.#.#.#.O.O.#.@. .P $.$.$.$.",
"$.$.$.$.X k k z S F T T W W / / ]  .#.#.#.#.O.O.#.@.O.P $.$.$.$.",
"$.$.$.$.X k k z S S U T T W / / `  .#.#.#.#.O.O.#.+. .U $.$.$.$.",
"$.$.$.$.X z y z S F T T W W W / `  .#.#.#.#. .O.#.@.O.P $.$.$.$.",
"$.$.$.$.X z z z S F T T T W / / `  .#.#.#.#.O.O.#.+. .P $.$.$.$.",
"$.$.$.$.X z z z S F T T W W / / `  .#.#.#.#.O.O.#.+. .P $.$.$.$.",
"$.$.$.$.o y z z S S T T W W W / `  .#.#.#.#.O.O.#.+. .T $.$.$.$.",
"$.$.$.$.X z z z S F Y E E W ` / `  .#.#.#.#.O.O.#.@. .P $.$.$.$.",
"$.$.$.$.X z y z S F Y E W W W / `  .#.#.#.#. .O.#.@. .P $.$.$.$.",
"$.$.$.$.o z z z S S Y Y W W W / `  .#.#.#.#.O.O.#.@.O.P $.$.$.$.",
"$.$.$.$.o y z l S S U E T W / / `  .#.#.#.#.O.O.#.+. .U $.$.$.$.",
"$.$.$.$.o z z z S F Y E E E / / /  .#.#.#.#. .O.#.+. .P $.$.$.$.",
"$.$.$.$.o z y z S F Y E E W W ` ]  .#.#.#.#.O.O.#.+. .P $.$.$.$.",
"$.$.$.$.X y z z S F T T E W W W `  .#.#.#.#.O.O.#.+. .P $.$.$.$.",
"$.$.$.$.o z z z S F T T E W ` ` `  .#.#.#.#.O.O.#.+.O.P $.$.$.$.",
"$.$.$.$.o z z z S F T T W W W / `  .#.#.#.#. .O.#.+. .P $.$.$.$.",
"$.$.$.$.o z y z S S U T T W / / `  .#.#.#.#.O.O.#.+.O.P $.$.$.$.",
"$.$.$.$.o k z z S F T T W W / / `  .#.#.#.#.O.O.#.+.O.P $.$.$.$.",
"$.$.$.$.o y z z S F T T W W W / `  .#.#.#.#.O.O.#.+. .T $.$.$.$.",
"$.$.$.$.o k k z S S Y Y E W W ` `  .#.#.#.#.O.O.#.+. .U $.$.$.$.",
"$.$.$.$.o k k z S D Y E E W W ` `  .#.#.#.#. .O.#.@. .P $.$.$.$.",
"$.$.$.$.o k k z S D E Y W W W ` `  .#.#.#.#.O.O.#.@.O.P $.$.$.$.",
"$.$.$.$.o k k z S D Y E E W W ` `  .#.#.#.#.O.O.#.@. .P $.$.$.$.",
"$.$.$.$.o k k z S F T T E W ` W `  .#.#.#.#. .O.#.+.O.P $.$.$.$.",
"$.$.$.$.o k k z S F T T E W W ` )  .#.#.#.#.O.O.#.+. .P $.$.$.$.",
"$.$.$.$.o k k z S F U T W W ` ` )  .#.#.#.#.O.O.#.+. .P $.$.$.$.",
"$.$.$.$.o k k z S F T T W W W W /  .#.#.#.#.O.O.#.+.O.P $.$.$.$.",
"$.$.$.$.X # # % ; ; 5 ; 5 5 > 2 > q q s q s 9 9 s s q ; $.$.$.$."
};
