/* XPM */
static char *EXIT[] = {
/* columns rows colors chars-per-pixel */
"32 23 110 2 ",
"   c #592602",
".  c #5D2D03",
"X  c #612F04",
"o  c #643304",
"O  c #6B3D05",
"+  c #734404",
"@  c #7B4701",
"#  c #7C4B05",
"$  c #724D2C",
"%  c #7D5A3A",
"&  c #804D05",
"*  c #845301",
"=  c #8C5A03",
"-  c #935C03",
";  c #9C5D01",
":  c #9D6301",
">  c #A36300",
",  c #AC6502",
"<  c #A76A04",
"1  c #AA6A02",
"2  c #B16600",
"3  c #B46B02",
"4  c #AE7000",
"5  c #B57101",
"6  c #BB7205",
"7  c #BC7A04",
"8  c #8B6635",
"9  c #94713A",
"0  c #A47A35",
"q  c #C27701",
"w  c #C47903",
"e  c #CB7D01",
"r  c #C27B08",
"t  c #B38132",
"y  c #BA8637",
"u  c #BA873B",
"i  c #BD883B",
"p  c #CD8101",
"a  c #C68907",
"s  c #CE8901",
"d  c #C08108",
"f  c #D28401",
"g  c #D58A01",
"h  c #D98B00",
"j  c #D69301",
"k  c #D99601",
"l  c #DC9A01",
"z  c #D09308",
"x  c #D99D0A",
"c  c #E19E01",
"v  c #DFA002",
"b  c #DDA30D",
"n  c #E3A301",
"m  c #E8A600",
"M  c #ECAB01",
"N  c #E1A40B",
"B  c #EBAD09",
"V  c #F4B402",
"C  c #FAB601",
"Z  c #FDBA02",
"A  c #F3B90C",
"S  c #FCBE09",
"D  c #E2B31E",
"F  c #E2BE2E",
"G  c #FEC207",
"H  c #FEC40B",
"J  c #FEC610",
"K  c #FFCB15",
"L  c #F8C71B",
"P  c #FFCD1A",
"I  c #FFD216",
"U  c #FFD71D",
"Y  c #FED726",
"T  c #FBD12E",
"R  c #FDDB2E",
"E  c #E1C030",
"W  c #FDDB30",
"Q  c #FBD73B",
"!  c #FFE333",
"~  c #B99047",
"^  c #BF924D",
"/  c #C3934E",
"(  c #E1B147",
")  c #C79F61",
"_  c #C9A164",
"`  c #F5C746",
"'  c #F6C945",
"]  c #F8C946",
"[  c #F4C74A",
"{  c #F4C94F",
"}  c #D8C6AD",
"|  c #DBC9AB",
" . c #EFDDA5",
".. c #F0DAA2",
"X. c #EBDCB0",
"o. c #E1D3BF",
"O. c #EEE1BD",
"+. c #D4CCC5",
"@. c #D9D3D4",
"#. c #E2D4C0",
"$. c #EDE2C0",
"%. c #E7E6E6",
"&. c #E8E7E5",
"*. c #EAE9E7",
"=. c #32ad32",
"-. c #EBEEF5",
";. c #EAEEF9",
":. c #EDF0F4",
">. c #EFF3FA",
",. c #F3F8FC",
/* pixels */
"=.=.=.:.#.r p g h g f e s g j x N B A L T Q W Y K J S  .;.*.=.=.",
"=.=.=.:.#.3 q p f h e q w p s j l c M C G K W R K S C  .;.*.=.=.",
"=.=.=.:.o.3 w f f f e w e p s j k v M V S K R ! P S V O.;.=.=.=.",
"=.=.=.:.o.3 w e f f e q e p s g l n M V S J R W P S C O.-.=.=.=.",
"=.=.=.-.| 3 e e f h f e e s s j v M V S G I ! ! U G Z O.-.*.=.=.",
"=.=.=.>.} ; , 6 6 r 6 3 6 6 7 d a z x b b D E E D N N X.;.*.=.=.",
"=.=.=.=.%.+.$   . . X o X o O + + + # # # & # # # 9 @.*.=.=.=.=.",
"=.=.=.=.=.,.% . O + + # # * = - - : < 5 7 7 4 < > ~ ,.=.=.=.=.=.",
"=.=.=.=.*.=.8 & = - : : > 1 5 7 s l M S H H A B c ( -.*.=.=.=.=.",
"=.=.=.=.=.:.0 ; 1 , 3 5 5 e g k c M S G J K H H Z ] -.*.=.=.=.=.",
"=.=.=.=.=.=.0 , 3 3 e p q p h k c M V G K K J S Z ` -.=.=.=.=.=.",
"=.=.=.=.*.:.i , 6 e h f q p g j c M C G J K J S Z ` ;.=.=.=.=.=.",
"=.=.-.=.*.>./ , p p f f e e h j c M C H K K H S Z { ;.*.=.=.=.=.",
"=.=.=.=.*.>.) 3 e e f f q p g k c M C G K K J H Z { ;.*.=.=.=.=.",
"=.=.=.=.*.>._ 2 r e f e q p g j c M C S K P H S Z { ;.=.=.=.=.=.",
"=.=.=.=.*.>._ 2 r e f f q e g k n m V H K P H S Z ` -.=.=.-.=.=.",
"=.=.=.=.=.>._ 2 r e f p q e g k c m V G K K J G Z ` -.=.=.=.=.=.",
"=.=.=.=.=.>._ 2 q e f f w e g k n n V G P K J H Z ` -.*.=.=.=.=.",
"=.=.=.=.*.>.) 2 q e f f w e g k n m V H K K J S Z ` -.=.=.=.=.=.",
"=.=.=.=.*.>./ 2 6 e f f w e f l n n V H K K J S Z ` ;.*.=.=.=.=.",
"=.=.=.=.*.-.i 3 q e f f q e g k n n V H K K J S Z ` -.*.=.-.=.=.",
"=.=.=.=.=.-.y 3 q e f f q f h k n m V G K K H S Z ] -.=.=.=.=.=.",
"=.=.-.=.=.-.u 2 q e g f q e f k v m V G K K H H C ] -.=.=.=.=.=."
};
