/* XPM */
static char *grass[] = {
/* columns rows colors chars-per-pixel */
"32 32 8 1 ",
"  c #2CA42C",
". c #2EA72E",
"X c #2EA82E",
"o c #2FAA2F",
"O c #30AB30",
"+ c #32AD32",
"@ c #33B133",
"# c #34B234",
/* pixels */
"@@+##+@#+@@+@@+@@@+@@+@@+@@+@#+@",
"X++X@OX+O++O+X+@X++X@+X@O++++X+@",
"+X@+O+++++++@+X@+X#+X+++O++O@+.@",
"@+@@+@#++@@+@@+@@+@@+@@+@+#+@@+@",
"++++@X+#X@@X++X@+++++X+@X@+X++X@",
"X+@X++X@+X+++++#X+@X+@X@+X@++++@",
"@X@@X@#O+@+O@#X#@X@@X@@O+#@O@@X@",
"++O@@X@@X@@X@@X+@+O@@X@@X@+X@@X@",
".+#.#@.#@X+@+X@@.@@.@@.@@X+@+X@#",
"@.#+.+@XO@+X@@.@+.+@.+@X+@+X@@.@",
"+++@@X@@X@#X@@X@@+O@@X@@X@@X@@X@",
".#+.#+.##X+#+X@@.@@.@@.@@X+@+X@@",
"@.#@.+@X+++X##.+@.@@.@@X+@+X@@.+",
"++++#X@#X@#X@@O@+++@#X@@X@@X@@++",
".+@.@+.#@X+@+X@+.++.@+.@@X+@+X+@",
"+.@@.+@X+++X+@.@@.@+.+@XO@+X@+.@",
"@@@@@@@@+@@+##@+@@+@@+@#+@#+@#@@",
"X++X@XX@X++++XX@.++X++X@O++++XO@",
"+X@+X@+++++X#@.@+X@+X@+++++X@+X@",
"@++@+@@@+#@+@@+@@+@@+@@++@@+@@+@",
"++++@X+@X@@.@+X@++++@X+@X@@X++X@",
"X+@X+@X@+O+++++@X+@X++X++X@++++@",
"@X@@X@@X@@@X@@X@@X@@X@@++@@X@@X@",
"@+X@@X@@X@@X@@X+@+O@@X@@X@+X@@X@",
".@@.@@.@@X+@+X@@.@@.@+.#@X+@+X@@",
"@.@@.+@X+@+X@@.@+.@@X@@X+@@X@@.@",
"@+X@@X@@X@@X@@X@@+X@@X@@X@@X@@X+",
".+#.@@.@#X+#+X#@.@@.@@.#@X+@+X@@",
"+.@#.@@X+@+X@#.@@.@@.+@X+@+X@@.@",
"@++++X@@X@@X@+.#+++@@X@@X@#X@@X+",
".+@.@+.@@X+@+.++.++.@+.@@X+++X@@",
"+.@@.@@XX@+.@#.@@.@+.+@X+@+.@@.@"
};
