/* XPM */
static char *mechant_2[] = {
/* columns rows colors chars-per-pixel */
"32 23 176 2 ",
"   c #241414",
".  c #382726",
"X  c #571214",
"o  c #482D1F",
"O  c #493326",
"+  c #553925",
"@  c #493931",
"#  c #6A322A",
"$  c #387C31",
"%  c #75441A",
"&  c #59453A",
"*  c #674529",
"=  c #714424",
"-  c #7A4D34",
";  c #5C623F",
":  c #60772E",
">  c #727D30",
",  c #4E3F41",
"<  c #594C4C",
"1  c #795C42",
"2  c #6A5F58",
"3  c #736254",
"4  c #80282F",
"5  c #C43D2A",
"6  c #E22E2C",
"7  c #F03D37",
"8  c #8E4F1C",
"9  c #954C1B",
"0  c #A6541F",
"q  c #8D5725",
"w  c #9E662B",
"e  c #9B6D36",
"r  c #947734",
"t  c #AB602A",
"y  c #B46422",
"u  c #BA6624",
"i  c #B86B2D",
"p  c #B1742D",
"a  c #A86E39",
"s  c #B16A32",
"d  c #AB7630",
"f  c #BE7633",
"g  c #CD562D",
"h  c #C44834",
"j  c #CA5032",
"k  c #C36A25",
"l  c #C57226",
"z  c #C67B2B",
"x  c #D27E2B",
"c  c #8A5F40",
"v  c #9D7042",
"b  c #987A59",
"n  c #A87948",
"m  c #A47B52",
"M  c #857567",
"N  c #927D68",
"B  c #CC6F49",
"V  c #E0734B",
"C  c #2FAD31",
"Z  c #32AD32",
"A  c #36A835",
"S  c #39AD33",
"D  c #37B035",
"F  c #3BB13A",
"G  c #5D8E2C",
"H  c #489231",
"J  c #4B9D32",
"K  c #579A38",
"L  c #708734",
"P  c #788C30",
"I  c #4BA433",
"U  c #48AD37",
"Y  c #59A933",
"T  c #44B136",
"R  c #59B535",
"E  c #6BA133",
"W  c #74A636",
"Q  c #55AB4D",
"!  c #49B543",
"~  c #57B64A",
"^  c #54B853",
"/  c #6BA94E",
"(  c #64B846",
")  c #64BD5B",
"_  c #73B25B",
"`  c #74B85A",
"'  c #78C365",
"]  c #888C2E",
"[  c #988439",
"{  c #8E9E31",
"}  c #AA832A",
"|  c #A98B36",
" . c #A19930",
".. c #B69633",
"X. c #87A536",
"o. c #8AAF36",
"O. c #BDB637",
"+. c #DB842B",
"@. c #DC8B2E",
"#. c #CE912E",
"$. c #CD8933",
"%. c #D08B34",
"&. c #CA9A36",
"*. c #D89A35",
"=. c #E38E2F",
"-. c #E6952F",
";. c #E39A2F",
":. c #E89630",
">. c #E59D30",
",. c #F79B31",
"<. c #D6A938",
"1. c #E4A637",
"2. c #F6AA34",
"3. c #F4AD35",
"4. c #F6B335",
"5. c #FAB335",
"6. c #F6B936",
"7. c #8CCA3B",
"8. c #B7C137",
"9. c #C3CD3F",
"0. c #FACA3B",
"q. c #F5D63E",
"w. c #FBD23B",
"e. c #FDE53E",
"r. c #B98044",
"t. c #BA8448",
"y. c #BF894B",
"u. c #AE8255",
"i. c #B88B56",
"p. c #AB9C56",
"a. c #BB935D",
"s. c #84B459",
"d. c #A5AF56",
"f. c #8B8D69",
"g. c #93B273",
"h. c #C48A4B",
"j. c #C99A42",
"k. c #C49255",
"l. c #C89557",
"z. c #CB9A5C",
"x. c #D19E5D",
"c. c #C7996C",
"v. c #EC8263",
"b. c #CAA56D",
"n. c #D2A262",
"m. c #D5A46B",
"M. c #DBAC6A",
"N. c #CCB375",
"B. c #E5A760",
"V. c #E5BC77",
"C. c #B5C758",
"Z. c #8AC66A",
"A. c #97C465",
"S. c #A7CB7E",
"D. c #CECF4D",
"F. c #F1C94E",
"G. c #EDDF47",
"H. c #F7D144",
"J. c #E6C854",
"K. c #F9DC58",
"L. c #D8DC6E",
"P. c #CFC27F",
"I. c #DFC87A",
"U. c #DCD670",
"Y. c #EDCF6C",
"T. c #F4D274",
"R. c #C7B685",
"E. c #ABC78C",
"W. c #BCDE8E",
"Q. c #D4CB8E",
"!. c #CDD481",
"~. c #ECCC88",
"^. c #F2D58B",
"/. c #EBD391",
"(. c #EED791",
"). c #FBF0CF",
/* pixels */
"Z Z Z Z Z Z Z Z Z Z Z Z Z Z Z Z Z Z Z Z C C Z Z Z Z Z Z Z Z Z Z ",
"Z Z Z Z Z Z Z Z Z Z Z Z Z Z Z A ' T C Z D C Z Z Z Z Z Z Z Z Z Z ",
"Z Z Z Z Z Z Z Z Z Z Z A C C A e v.Z.C F F C ! A Z Z Z Z Z Z Z Z ",
"Z Z Z Z Z Z Z Z Z Z A ' Z.D > 6 7 V J ` s.A.W.F Z Z Z Z Z Z Z Z ",
"Z Z Z C Z Z Z Z Z Z Z s./.p.5 h p g h N.p.B.A.Z Z C s.S.D Z Z Z ",
"Z Z Z ) ( C Z Z Z Z Z / a.B h j o.B V n.g.R.E.! C U >.F.T C Z Z ",
"Z Z C d.H.7.D C A Z _ Q.b.u.d.m.V./.!./.).).).E.K O.q.G.Z.^ Z Z ",
"Z S ^ X.F.q.D.L $ Q f.N a.k.l.V.M.~.^.^.c.N f.N j.H.K.Y.J.J.R Z ",
"C ( U.C.T.H.K.q.| 2 + @ b a u.a.n u.n.n.b , < e 4.F.H.3.5.;.Y C ",
"C Y 1.2.4.4.w.e.<.& d + & v c -   X m b.3 * @ t -.+.4.,.1.W Z Z ",
"Z Z E  .#.=.4.4.d M *.8   1 v # X 4 c.m   % = @ f =.@...Y C Z Z ",
"Z Z Z Z Y [ p q O r ;.9 . 1 n i.c.V.(.m . % $.1 o * : S C Z Z Z ",
"Z Z Z Z Z A $ ; w :.z = + e t.b.V.V.V.B - # z >.[ H Z Z Z Z Z Z ",
"Z Z Z Z Z Z Z T X.{ K r s r.f y.h.x.l.r.u i %.N.~ C Z Z Z Z Z Z ",
"Z Z Z Z Z Z Z Z Z A ] y 0 a r.h.z.M.l.f u k %.D.' C Z A Z Z Z Z ",
"Z Z Z Z Z Z Z Z Z E l y 0 t r.h.l.z.h.s u x :.G.L.A.F Z Z Z Z Z ",
"Z Z Z Z Z Z Z Z Z W +.u y l i $.h.h.f u l ;.w.e.e.K.9.R D Z Z Z ",
"Z Z Z Z Z Z Z Z Z T #.x ;.>.k P W | x x +.5.w.w.0.0.8.T D Z Z Z ",
"Z Z Z Z Z Z Z Z Z S C.4.6.:.k H Z S E *.+.:.2.5.O.W D Z Z Z Z Z ",
"Z Z Z Z Z Z Z Z Z T !.T.Y.#.P Z Z Z Z | +.+.,.2.W C Z Z Z Z Z Z ",
"Z Z Z Z Z Z Z Z Z D ^ _ ` I C Z Z Z Z w =.2.0.K.L.T Z Z Z Z Z Z ",
"Z Z Z Z Z Z Z Z Z Z C C C Z C Z Z Z Z G } &.I.P.E.T Z Z Z Z Z Z ",
"Z Z Z Z Z Z Z Z Z Z Z Z Z Z Z Z Z Z Z Z A I Q U D C Z Z Z Z Z Z "
};
