/* XPM */
static char *mechant_1[] = {
/* columns rows colors chars-per-pixel */
"32 32 221 2 ",
"   c #1D0F12",
".  c #3B0205",
"X  c #251718",
"o  c #301A12",
"O  c #3B241A",
"+  c #392A28",
"@  c #3B2D34",
"#  c #3D3633",
"$  c #5B0611",
"%  c #481410",
"&  c #472815",
"*  c #5A2B17",
"=  c #583D1F",
"-  c #633114",
";  c #493428",
":  c #573923",
">  c #70491F",
",  c #55443C",
"<  c #6C4728",
"1  c #774E2E",
"2  c #664534",
"3  c #715831",
"4  c #46653A",
"5  c #716837",
"6  c #473D42",
"7  c #4E4345",
"8  c #544744",
"9  c #665245",
"0  c #75584A",
"q  c #6C615E",
"w  c #8A2832",
"e  c #BE3526",
"r  c #CF342A",
"t  c #E4352E",
"y  c #E83932",
"u  c #9B511D",
"i  c #A2531D",
"p  c #AA5A1F",
"a  c #945923",
"s  c #8A4337",
"d  c #885D38",
"f  c #AA5920",
"g  c #B65923",
"h  c #B4583C",
"j  c #966E36",
"k  c #996939",
"l  c #AB642C",
"z  c #B46323",
"x  c #BC6422",
"c  c #B86A27",
"v  c #BB7929",
"b  c #A3683B",
"n  c #B66D30",
"m  c #AA7238",
"M  c #B77738",
"N  c #B4793D",
"B  c #CB4C2C",
"V  c #D94338",
"C  c #E44838",
"Z  c #C06323",
"A  c #C16C24",
"S  c #CB7426",
"D  c #CC7A27",
"F  c #C77628",
"G  c #D07D28",
"H  c #D97E2B",
"J  c #C57937",
"K  c #896649",
"L  c #9B7446",
"P  c #917052",
"I  c #AA7844",
"U  c #B67F44",
"Y  c #A17955",
"T  c #817E66",
"R  c #EE5B4A",
"E  c #CF704E",
"W  c #2FAB2E",
"Q  c #2EAD31",
"!  c #32AD32",
"~  c #38AF37",
"^  c #3AAF39",
"/  c #35B038",
"(  c #3DB13C",
")  c #6D9532",
"_  c #47A83A",
"`  c #45B13D",
"'  c #52B13F",
"]  c #509149",
"[  c #689847",
"{  c #4DA94E",
"}  c #54AC45",
"|  c #45B242",
" . c #49B649",
".. c #54B54A",
"X. c #5DB14C",
"o. c #55B953",
"O. c #59BA56",
"+. c #78AB4D",
"@. c #61B74A",
"#. c #65B658",
"$. c #778371",
"%. c #71AB64",
"&. c #5EC05F",
"*. c #69C266",
"=. c #71C56A",
"-. c #868A37",
";. c #939032",
":. c #A78E31",
">. c #88AD30",
",. c #B8B03D",
"<. c #D5822A",
"1. c #DB832A",
"2. c #DC8C2D",
"3. c #DC922E",
"4. c #C38233",
"5. c #D28930",
"6. c #D98831",
"7. c #CE9239",
"8. c #E38A2D",
"9. c #E8972E",
"0. c #E99631",
"q. c #EA9936",
"w. c #F79E31",
"e. c #D2A739",
"r. c #E6A02F",
"t. c #EBA331",
"y. c #E9AA32",
"u. c #F5A432",
"i. c #F4AA33",
"p. c #F9A933",
"a. c #F3B235",
"s. c #F7B837",
"d. c #F6BB36",
"f. c #F7C438",
"g. c #F9C539",
"h. c #F9CC3A",
"j. c #F9D33B",
"k. c #F7D83B",
"l. c #FAE33D",
"z. c #919341",
"x. c #9B875B",
"c. c #BB8245",
"v. c #B9864B",
"b. c #BB864A",
"n. c #AB8753",
"m. c #AC8F50",
"M. c #B88954",
"N. c #8DAA56",
"B. c #8BB250",
"V. c #B2A649",
"C. c #AFAD57",
"Z. c #97926E",
"A. c #AB936B",
"S. c #90B06E",
"D. c #9BB775",
"F. c #B7B368",
"G. c #B7A57A",
"H. c #C58A4A",
"J. c #D7954F",
"K. c #C48C53",
"L. c #C59354",
"P. c #C69559",
"I. c #CD9B5C",
"U. c #E08A45",
"Y. c #CDA64E",
"T. c #D2A55C",
"R. c #ECA85E",
"E. c #CE8E6F",
"W. c #CDA967",
"Q. c #D8A867",
"!. c #DDB774",
"~. c #E4B76D",
"^. c #E4B975",
"/. c #E5B975",
"(. c #B2CE40",
"). c #86C669",
"_. c #91CF7C",
"`. c #A2D27D",
"'. c #CCCE57",
"]. c #F8C747",
"[. c #F7D845",
"{. c #EFD359",
"}. c #D9E05B",
"|. c #F6E249",
" X c #F8E555",
".X c #DCC979",
"XX c #E6C663",
"oX c #E7D868",
"OX c #ECC37D",
"+X c #F4ED62",
"@X c #F6E472",
"#X c #95918C",
"$X c #AA9A85",
"%X c #B3AF89",
"&X c #D0B78C",
"*X c #E6AE83",
"=X c #8CCE89",
"-X c #99D390",
";X c #ACC587",
":X c #A4D18A",
">X c #B4D989",
",X c #B8DB97",
"<X c #D3C88B",
"1X c #C6C997",
"2X c #DAC99B",
"3X c #E9CA85",
"4X c #F4D88C",
"5X c #EDC393",
"6X c #E7DB95",
"7X c #F5DB94",
"8X c #F5E499",
"9X c #F9E598",
"0X c #C0D9A8",
"qX c #E8D6AD",
"wX c #E8D8B5",
"eX c #D0E6B0",
"rX c #F7E7AF",
"tX c #EBDCC6",
"yX c #D8E1C8",
"uX c #F1F0D3",
"iX c #F7F4E1",
/* pixels */
"! ! ! ! ! ! ! ! ! ! ! ! ! ! ! Q ! ! ! ! ! ! ! ! ! ! ! ! ! ! ! ! ",
"! ! ! ! ! ! ! ! ! ! ! ! ! ! ! ! | | W ! ! ! ! ! ! ! ! ! ! ! ! ! ",
"! ! ! ! ! ! ! ! ! ! ! ! ! ! !  .;X,X! ! ! ! ! ! ! ! ! ! ! ! ! ! ",
"! ! ! ! ! ! ! ! ! ! ! ^ ! ! X.A.R 5X=.! Q O.! ! !  ./ ! ! ! ! ! ",
"! ! ! ! ! ! ! ! Q O.*.=.! W L t y R 6Xo./ 0XO.O.`.0X^ ! ! ! ! W ",
"! ! ! ! ! ! ! ! Q S.6XeX#.{ r r y C C x.%.6X&X3XrX_.! ! ! !  .=X",
"! ! ! ! ! ! ! ! ! _ F.7XW.h t g :.;.B t K.6X-.U.OX..! ! ! ! ;XtX",
"| ! ! ! ! ! ! ! ! | Z.K.I.e V V -.>.B C E W.] N.^.=X~ ! ! *.R.t.",
"'.&.W Q Q ! ! ! | 0X2Xx.b > G.E L..XE.1XV.wXuXiXiXiX-X( ( F.d.h.",
"l.+X).| Q Q ! / D.%X&X&XQ.W.W..X^.4X9X7X7X8XwXwXrXuXyXq V.].[. X",
"f.j.|.'.5 4 ] #.G.T Y M.M.K.I./.W.~.3X4X4X3XW.K %XZ.q Y d.[.[.3X",
"4Xh.@X Xk.:.q #X+ X 9 M.I M.L.P.P.U I.Q.~.b.K @ 6 6 K p.j.XX@Xa.",
"].d.k.j.l.j.5 8 j o , 0 m.1 Y Y < & d M.M.W.$X7 K 7 c 9.y.y.f.a.",
"t.0.g.k.l.f.d ; 7.u o + L m K 2 . . % P !.m.8 & 1 X a 0.D <.t.i.",
"8.1.i.f.d.3.3 $Xy.A &   2 n.d * $ $ w Y ^.;   & z O + 4.2.0.2.t.",
";.J.9.9.1.1 @ n.y.A - + 9 L b K w s E.*X!.& X * F j 7 O a v l N.",
"/ %.5 < & X = r.2.g - X < I v.Q.9X9X8X8X~.d 7 O F 2.:.: O # ] ! ",
"W ! { ] $.j 3.9.D u O : k N v.I.^.^.^.OXP.l 1 ; > 5.q.H.-.] ! ! ",
"Q ! ! ! ' V.Y.I.N.[ L n b.N U b.H.K.W.K.c.n x c <.7.OX).! ! ! ! ",
"! ! ! ! ! ~ ` | | :.z f m N U c.H.I.Q.L.b.M x Z A 3.<X../ ! ! ! ",
"! ! ! ! ! ! ! ' m z f i l U U H.L.~.W.L.c.n x Z S 9.}.,X*.Q ! ! ",
"! ! ! ! ! ! Q C.F z p i f U b.v.L.P.L.L.M g x S D a.l.@X:X,X| ! ",
"! ! ! ! ! ! / C.F x p p f g U b.b.H.L.c.z x A G r.j.l.|.{.4X>X@.",
"! ! ! ! ! Q W C.3.F x F 2.S A H.I.H.J A c c D r.h.l.l.k.l.l.l.oX",
"! ! ! ! ! ! ! X.Y.D G i.a.D H.+.X.+.4.6.<.D <.p.f.j.j.f.h.f.'.' ",
"! ! ! ! ! ! ! ~ (.y.t.p.9.S l _ W Q ` N.T.9.1.9.u.a.a.d.e.B.` W ",
"! ! ! ! ! ! ! ` }. Xj.{.p.G Y ..! ! ! ! B.3.G <.9.w.p.,.` ! W ! ",
"! ! ! ! ! ! ! O.1XqX~.2X7.z.X.! ! ! ~ / ) 6.H H 8.w.p.{.' ! W ! ",
"! ! ! ! ! ! ! ^ O.D.#.D.X.~ ! W ! ! ! ! ) x H w.d.h.[. X>X/ ! ! ",
"! ! ! ! ! ! ! ! ! W ! W W ! ! ! W ! ! ! } n H w.XX{.3XqXyX&.! ! ",
"! ! ! ! ! ! ! ! ! ! ! ! ! ! ! ! ! ! ! ! ! _ [ ;.G.1XD.=XO.! ! ! ",
"! ! ! ! ! ! ! ! ! ! ! ! ! ! ! ! ! ! ! ! ! ! ~ / ` | ( ~ Q ! ! W "
};
