/* XPM */
static char *wall[] = {
/* columns rows colors chars-per-pixel */
"32 32 6 1 ",
"  c #010101",
". c #553823",
"X c #553923",
"o c #563923",
"O c #675244",
"+ c #695345",
/* pixels */
" O++++++++++++++ +++++++++++++++",
" XXXXXXXooXXXXoo XXXooXXXXooXXXX",
" XXXXXXXooooXooo XXXoooXXoooooXX",
" XXXXXXXoXooXXoo XoXooooXXoooooX",
" XXXoXoooooooooo XXXXXoooXoXoooo",
" XoXooooXXoooooX XXXoXXXoooXoooo",
" XXXXXXXXXXXXXXX XXXXXXXXXXXXXXX",
"                                ",
"++++++++ +++++++++++++++ +++++++",
"XXXXooXo XXXooXXXXXoXooo XooXXXX",
"ooXXoooo XXXooooXooooooo XXoooXo",
"ooXXoooo Xoooooooooooooo XXXoooo",
"oooooooo XXXXXooooooXXXo XXXoooo",
"oXoXooXX XXXooXXooooXXXo XoXoooo",
"XXXXXXXX XXXXXXXXXXXXXXX XXXXXXX",
"                                ",
" +++++++++++++++ +++++++++++++++",
" XooooXoXooooooo XXXooXXoXooXooX",
" XXoooXooooooooo XXXoooooXoooooo",
" XoooooooXoooooo XoXoooooooooooo",
" XXXXooooooooooo XXXXXoooXoXoooo",
" XXXXXooooooXXoo XXXoXXXoooXoooo",
" XXXXXXXXXXXXXXX XXXXXXXXXXXXXXX",
"                                ",
"++++++++ +++++++++++++++ +++++++",
"XXooXXXX XXXXXooXXXoXooo XooXXXX",
"XXXooooo XXXXoooXooooooo XXoooXo",
"XXoooooo XoXXooooooooooo XXXoooo",
"oXoXoooo XXXooXXooooXXXo XXXoooo",
"oooXoooo XXXoooXooooXXXo XoXoooo",
"XXXXXXXo XXXXXXXXXXXXXXX XXXXXXX",
"                                "
};
